<?xml version="1.0" standalone="no"?>
<!DOCTYPE svg PUBLIC "-//W3C//DTD SVG 20010904//EN"
 "http://www.w3.org/TR/2001/REC-SVG-20010904/DTD/svg10.dtd">
<svg version="1.0" xmlns="http://www.w3.org/2000/svg"
 width="35pt" height="30.000000pt" viewBox="0 0 505.000000 466.000000"
 preserveAspectRatio="xMidYMid meet">
<metadata>
Created by potrace 1.13, written by Peter Selinger 2001-2015
</metadata>
<g transform="translate(0.000000,466.000000) scale(0.100000,-0.100000)"
fill="#555555" stroke="none">
<path d="M969 4534 l-24 -26 -3 -519 -3 -519 -197 0 c-226 0 -272 -8 -399 -70
-155 -76 -284 -239 -328 -415 -23 -89 -23 -2381 0 -2470 44 -174 176 -342 327
-418 144 -71 2 -67 2167 -67 1774 0 1961 2 2020 16 212 53 384 216 457 434 18
52 19 117 22 1225 2 785 -1 1192 -8 1238 -29 190 -158 366 -332 454 -152 78
-51 73 -1499 73 -1234 0 -1296 1 -1305 18 -5 10 -76 107 -159 216 -82 109
-157 207 -165 219 -8 12 -61 83 -117 157 -56 74 -128 170 -160 213 -206 276
-237 301 -294 241z m2789 -2166 c9 -9 12 -149 12 -569 0 -619 6 -569 -70 -569
-46 0 -58 13 -62 69 l-3 43 -40 -32 c-84 -67 -131 -85 -230 -85 -80 0 -97 3
-150 30 -72 36 -125 101 -150 184 -25 85 -30 232 -10 311 9 36 19 74 22 86 8
34 75 116 118 145 108 73 271 66 379 -16 18 -14 36 -25 39 -25 4 0 7 94 7 208
0 148 3 211 12 220 7 7 35 12 63 12 28 0 56 -5 63 -12z m-1874 -71 c13 -10 17
-24 14 -57 l-3 -45 -230 -5 -230 -5 -3 -167 -2 -168 193 0 c137 0 196 -3 205
-12 20 -20 15 -86 -7 -98 -12 -6 -96 -10 -205 -10 l-186 0 0 -184 0 -184 228
-7 c126 -4 233 -12 240 -17 15 -13 16 -80 0 -96 -9 -9 -88 -12 -293 -12 -238
0 -284 2 -303 16 l-22 15 0 508 c0 536 -1 522 45 534 11 2 137 5 281 6 198 1
264 -2 278 -12z m360 -277 c22 -8 26 -16 26 -53 0 -24 3 -46 6 -50 4 -3 27 11
53 33 69 58 129 80 219 80 134 0 224 -61 256 -174 14 -46 16 -102 14 -338 l-3
-283 -44 -3 c-25 -2 -55 -1 -68 3 l-23 5 0 245 c0 274 -8 330 -52 381 -24 27
-37 34 -67 34 -20 0 -42 5 -48 11 -25 25 -122 -26 -190 -99 l-33 -35 0 -261
c0 -191 -3 -265 -12 -274 -12 -12 -95 -16 -122 -6 -14 5 -16 49 -16 390 l0
385 23 9 c30 12 51 12 81 0z"/>
<path d="M3335 1908 c-38 -13 -92 -64 -110 -103 -67 -152 -33 -378 67 -441 28
-18 52 -24 92 -24 71 0 112 18 180 81 l56 51 0 158 0 159 -55 48 c-85 74 -158
96 -230 71z"/>
</g>
</svg>
