<?xml version="1.0" standalone="no"?>
<!DOCTYPE svg PUBLIC "-//W3C//DTD SVG 20010904//EN"
 "http://www.w3.org/TR/2001/REC-SVG-20010904/DTD/svg10.dtd">
<svg version="1.0" xmlns="http://www.w3.org/2000/svg"
 width="70.000000pt" height="70.000000pt" viewBox="0 0 800.000000 800.000000"
 preserveAspectRatio="xMidYMid meet">

<g transform="translate(0.000000,800.000000) scale(0.100000,-0.100000)"
fill="#9a694b" stroke="none">
<path d="M5593 7218 c13 -189 79 -313 195 -365 29 -12 68 -23 86 -23 30 0 36
4 50 40 48 120 -21 244 -203 364 -142 94 -135 94 -128 -16z"/>
<path d="M2220 7200 c-143 -87 -240 -203 -240 -286 0 -32 23 -99 37 -107 13
-8 113 15 107 24 -3 5 1 7 8 4 17 -7 67 39 103 93 15 22 36 74 46 113 19 72
26 199 12 199 -5 0 -37 -18 -73 -40z"/>
<path d="M5042 7192 c-15 -10 51 -105 119 -171 49 -47 131 -91 168 -91 35 0
93 17 115 33 45 33 -18 153 -104 197 -66 33 -262 54 -298 32z"/>
<path d="M2649 7152 c-111 -29 -172 -90 -173 -170 -1 -43 1 -48 34 -64 75 -37
166 -10 256 74 52 48 127 156 118 169 -9 15 -165 9 -235 -9z"/>
<path d="M1775 6892 c-89 -65 -178 -164 -208 -232 -26 -58 -26 -136 0 -187 24
-46 46 -51 111 -23 114 49 179 167 189 344 3 50 1 106 -3 124 l-9 33 -80 -59z"/>
<path d="M6076 6919 c-17 -89 3 -245 44 -331 37 -80 110 -138 192 -153 35 -7
37 -5 59 36 64 126 -12 278 -211 425 -78 58 -77 58 -84 23z"/>
<path d="M5530 6803 c-62 -22 -184 -90 -224 -126 l-49 -43 44 -16 c117 -44
195 -61 278 -62 125 0 189 32 233 117 l19 39 -31 30 c-50 48 -105 68 -185 67
-38 0 -77 -3 -85 -6z"/>
<path d="M2185 6771 c-70 -34 -99 -64 -91 -94 9 -36 61 -91 77 -82 7 5 10 4 6
-2 -16 -26 97 -47 187 -34 71 10 236 60 236 71 0 13 -117 94 -178 123 -84 39
-179 47 -237 18z"/>
<path d="M1311 6495 c-118 -137 -181 -265 -181 -369 0 -61 39 -148 76 -173 23
-14 28 -14 66 3 51 23 118 88 141 137 28 58 40 149 32 240 -7 88 -44 229 -60
233 -5 2 -39 -30 -74 -71z"/>
<path d="M6536 6529 c-10 -23 -24 -87 -33 -142 -36 -215 29 -376 177 -437 41
-17 70 3 104 71 50 101 26 219 -75 368 -49 72 -141 181 -153 181 -2 0 -11 -19
-20 -41z"/>
<path d="M1814 6429 c-29 -11 -69 -38 -89 -59 -46 -47 -43 -73 12 -125 60 -57
153 -70 283 -40 65 16 240 92 240 106 0 3 -31 25 -68 47 -140 83 -282 110
-378 71z"/>
<path d="M5955 6443 c-102 -27 -275 -111 -275 -132 0 -10 127 -70 195 -92 80
-26 200 -35 251 -19 46 15 76 38 67 53 -3 5 -1 7 5 3 13 -8 52 40 52 64 0 21
-64 81 -112 106 -33 17 -145 28 -183 17z"/>
<path d="M908 5976 c-161 -249 -191 -467 -80 -584 63 -65 67 -67 104 -41 54
37 99 90 127 149 50 107 30 286 -54 464 -19 41 -38 77 -43 79 -4 3 -28 -27
-54 -67z"/>
<path d="M1537 6030 c-71 -22 -134 -73 -167 -134 l-24 -46 33 -34 c19 -20 49
-42 67 -51 73 -34 226 -8 330 58 114 72 135 88 128 100 -4 7 -4 9 1 5 9 -8 65
28 65 42 0 13 -96 46 -183 64 -99 21 -178 19 -250 -4z"/>
<path d="M6177 6040 c-57 -10 -175 -46 -197 -60 -12 -8 -9 -14 20 -40 84 -73
199 -144 279 -171 113 -39 244 -15 293 53 21 30 21 31 2 67 -21 40 -67 89
-107 115 -60 40 -178 54 -290 36z"/>
<path d="M6972 6037 c-8 -9 -37 -71 -47 -97 -1 -3 -9 -21 -17 -40 -32 -71 -52
-166 -52 -255 -1 -78 3 -98 26 -148 15 -32 32 -56 37 -53 5 3 8 -2 7 -11 -1
-14 98 -102 117 -103 4 0 27 18 52 41 106 98 111 260 14 469 -22 46 -43 87
-47 90 -4 3 -16 21 -26 40 -34 62 -52 81 -64 67z"/>
<path d="M2920 5669 l0 -36 80 -11 c110 -16 156 -41 183 -100 l22 -47 0 -1160
0 -1160 -23 -47 c-27 -54 -75 -83 -157 -93 -107 -14 -105 -12 -105 -57 l0 -41
153 7 c196 8 837 8 1035 0 l152 -7 0 45 0 44 -125 12 c-135 13 -184 28 -228
70 -57 54 -61 86 -65 545 l-3 417 178 0 c418 0 671 66 896 236 100 75 170 161
227 279 79 163 103 320 76 490 -49 297 -262 505 -610 595 -194 50 -231 52
-983 54 l-703 1 0 -36z m1271 -49 c63 -12 163 -58 200 -93 74 -67 133 -196
161 -352 18 -96 17 -458 -1 -554 -29 -159 -97 -308 -172 -376 -88 -80 -213
-115 -412 -115 l-128 0 4 668 c2 510 6 676 16 707 20 62 61 100 126 116 45 11
146 10 206 -1z"/>
<path d="M1306 5520 c-101 -30 -169 -82 -215 -165 -47 -82 -47 -99 -4 -135 79
-65 194 -67 311 -5 78 41 192 133 261 211 69 78 69 80 8 94 -28 7 -106 14
-172 16 -99 3 -132 0 -189 -16z"/>
<path d="M6345 5535 c-5 -2 -36 -9 -67 -15 -70 -14 -70 -14 38 -129 172 -183
355 -259 484 -200 91 41 101 66 60 149 -67 133 -206 201 -406 199 -55 0 -103
-2 -109 -4z"/>
<path d="M7344 5258 c-51 -54 -122 -149 -158 -211 -91 -158 -88 -332 8 -442
l33 -39 49 18 c74 27 137 99 165 188 19 62 21 86 16 187 -5 108 -45 313 -65
333 -5 5 -26 -11 -48 -34z"/>
<path d="M551 5253 c-33 -122 -42 -180 -48 -284 -8 -158 21 -273 79 -313 12
-9 18 -16 13 -16 -20 0 62 -51 98 -61 35 -9 42 -8 62 11 12 11 35 46 51 78 26
51 29 67 29 152 0 85 -3 102 -31 160 -17 36 -48 91 -68 123 -38 59 -152 187
-167 187 -4 0 -13 -17 -18 -37z"/>
<path d="M1420 4993 c-126 -20 -195 -40 -277 -79 -144 -71 -216 -158 -233
-282 -11 -85 -5 -99 52 -118 63 -21 138 -14 198 16 54 27 132 99 123 113 -3 6
-1 7 5 4 5 -4 27 16 48 44 39 54 154 274 154 296 0 13 -19 14 -70 6z"/>
<path d="M6470 4988 c0 -20 106 -234 136 -275 126 -173 253 -238 387 -199 l57
17 0 52 c0 221 -190 369 -527 411 -40 5 -53 4 -53 -6z"/>
<path d="M1316 4369 c-188 -96 -312 -210 -357 -328 -33 -88 -26 -228 14 -278
5 -8 33 -13 67 -13 44 0 71 7 119 31 123 61 198 210 236 465 17 112 19 164 8
164 -5 0 -43 -19 -87 -41z"/>
<path d="M6534 4333 c33 -375 166 -583 372 -583 48 0 55 3 68 28 82 161 0 368
-202 504 -70 47 -220 128 -237 128 -4 0 -5 -35 -1 -77z"/>
<path d="M400 4324 c0 -93 15 -197 42 -289 53 -181 146 -281 281 -301 61 -8
81 9 103 85 36 120 -12 265 -123 376 -70 70 -210 168 -229 161 -8 -3 -13 0
-11 6 1 6 -13 17 -30 24 l-33 14 0 -76z"/>
<path d="M7484 4374 c-165 -88 -285 -198 -342 -313 -32 -66 -37 -84 -37 -147
l0 -72 54 -55 c49 -49 56 -54 85 -47 130 30 213 135 266 335 20 73 41 325 28
325 -3 0 -27 -12 -54 -26z"/>
<path d="M7110 3817 c0 -24 38 -79 57 -84 38 -9 35 0 -12 47 -25 24 -45 41
-45 37z"/>
<path d="M1377 3649 c-192 -177 -275 -345 -247 -496 11 -61 58 -161 83 -177
23 -14 102 12 157 53 54 40 100 116 121 201 25 98 12 395 -20 482 -5 14 -23 2
-94 -63z"/>
<path d="M6461 3681 c-44 -208 -35 -437 23 -548 41 -80 125 -146 202 -158 40
-7 41 -6 71 41 52 82 70 168 53 254 -17 90 -95 240 -115 222 -5 -4 -5 -2 -2 5
7 12 -71 110 -100 127 -10 5 -28 22 -41 38 -14 16 -27 27 -29 24 -3 -3 -15 7
-28 22 l-22 26 -12 -53z"/>
<path d="M465 3440 c4 -6 11 -8 16 -5 14 9 11 15 -7 15 -8 0 -12 -5 -9 -10z"/>
<path d="M485 3430 c-14 -16 -13 -24 15 -101 91 -247 206 -396 341 -443 74
-26 166 -15 197 22 16 21 15 118 -2 177 -46 152 -210 276 -448 340 -83 22 -87
22 -103 5z"/>
<path d="M7347 3424 c-208 -57 -367 -165 -423 -289 -28 -59 -42 -162 -30 -210
14 -55 122 -71 222 -34 75 28 166 119 225 225 50 88 114 241 124 297 9 45 6
45 -118 11z"/>
<path d="M1650 3038 c-76 -137 -130 -313 -130 -420 0 -120 69 -252 165 -318
l43 -30 49 33 c101 67 144 178 125 322 -12 94 -30 150 -83 265 -37 79 -117
220 -125 220 -2 0 -21 -33 -44 -72z"/>
<path d="M6202 3034 c-103 -171 -162 -341 -162 -470 0 -72 25 -168 41 -158 5
3 7 -1 4 -8 -6 -16 34 -60 86 -95 l39 -26 40 27 c24 16 38 31 34 38 -4 6 -3 8
3 5 15 -9 57 39 48 54 -5 8 -4 10 4 5 7 -5 21 13 39 51 41 88 43 209 6 340
-25 89 -93 242 -126 287 -13 17 -17 13 -56 -50z"/>
<path d="M2076 2503 c-17 -55 -36 -207 -36 -284 0 -159 42 -293 120 -382 46
-52 144 -107 196 -110 33 -2 41 3 71 41 114 149 70 330 -142 575 -49 58 -182
177 -196 177 -4 0 -10 -8 -13 -17z"/>
<path d="M5798 2474 c-65 -53 -184 -181 -230 -247 -22 -32 -54 -88 -71 -125
-29 -60 -32 -77 -32 -157 0 -96 14 -137 69 -197 22 -25 27 -26 63 -17 54 15
132 62 169 101 91 98 127 207 127 383 0 117 -26 295 -43 295 -5 0 -28 -16 -52
-36z"/>
<path d="M895 2489 c-81 -15 -80 -14 -43 -65 96 -136 257 -277 383 -336 59
-27 80 -32 144 -31 83 1 129 16 181 59 28 24 31 31 25 63 -18 97 -97 201 -192
253 -109 59 -340 86 -498 57z"/>
<path d="M6670 2476 c-47 -12 -104 -32 -126 -44 -88 -45 -176 -163 -191 -256
-7 -43 2 -53 87 -94 116 -56 245 -27 401 89 115 85 298 293 267 304 -96 32
-319 33 -438 1z"/>
<path d="M2644 2033 c-10 -71 3 -258 26 -350 52 -218 184 -352 362 -371 41 -4
50 -1 68 19 61 74 67 229 12 334 -52 103 -167 222 -307 321 -66 47 -141 94
-150 94 -2 0 -7 -21 -11 -47z"/>
<path d="M5242 2025 c-46 -25 -94 -53 -107 -62 -12 -10 -33 -25 -45 -33 -103
-68 -220 -192 -261 -277 -45 -92 -33 -259 22 -309 17 -15 26 -16 80 -6 180 33
294 147 354 354 28 96 48 248 43 325 l-3 52 -83 -44z"/>
<path d="M1780 1758 c-89 -16 -273 -83 -323 -117 l-28 -18 38 -30 c153 -118
382 -212 528 -215 120 -3 236 57 281 145 15 27 14 31 -11 69 -102 154 -262
209 -485 166z"/>
<path d="M5938 1764 c-114 -21 -224 -97 -272 -187 l-20 -35 38 -47 c69 -84
143 -117 258 -116 83 1 181 25 282 71 75 33 213 115 260 153 l28 23 -99 47
c-101 47 -261 92 -358 99 -27 3 -80 -1 -117 -8z"/>
<path d="M3480 1633 c0 -91 18 -186 33 -176 6 3 7 1 3 -5 -11 -18 33 -100 84
-155 l48 -52 -39 -38 c-50 -48 -113 -144 -139 -213 -25 -67 -26 -171 -4 -238
l16 -48 26 44 c81 136 187 243 373 377 l87 62 38 -22 c22 -12 53 -33 71 -48
17 -14 53 -42 80 -61 99 -72 198 -183 290 -326 10 -17 13 -17 22 -4 18 26 34
122 28 170 -11 96 -63 198 -149 295 -43 48 -46 54 -31 66 9 8 32 36 52 64 33
44 45 70 83 165 6 14 13 70 16 124 l5 100 -25 -20 c-102 -80 -276 -239 -271
-247 3 -6 1 -7 -5 -3 -6 4 -40 -15 -74 -42 -73 -55 -113 -82 -127 -82 -12 0
-185 124 -236 169 -22 20 -67 59 -100 86 -63 54 -75 65 -123 109 l-32 30 0
-81z"/>
<path d="M2565 1285 c-89 -16 -206 -67 -322 -139 -111 -68 -123 -81 -97 -101
10 -8 23 -15 27 -15 5 0 38 -13 73 -30 96 -44 249 -89 344 -101 190 -23 337
39 404 170 24 45 20 58 -32 110 -55 55 -134 96 -211 111 -67 12 -97 12 -186
-5z"/>
<path d="M5157 1290 c-89 -15 -226 -100 -242 -150 -7 -21 31 -99 67 -141 80
-92 229 -127 421 -98 119 17 387 106 387 128 0 9 -116 97 -190 144 -84 53
-196 98 -279 113 -85 15 -95 15 -164 4z"/>
</g>
</svg>
