<?xml version="1.0" encoding="iso-8859-1"?>
<!-- Generator: Adobe Illustrator 18.0.0, SVG Export Plug-In . SVG Version: 6.00 Build 0)  -->
<!DOCTYPE svg PUBLIC "-//W3C//DTD SVG 1.1//EN" "http://www.w3.org/Graphics/SVG/1.1/DTD/svg11.dtd">
<svg xmlns="http://www.w3.org/2000/svg" xmlns:xlink="http://www.w3.org/1999/xlink" version="1.1" id="Capa_1" x="0px" y="0px" viewBox="0 0 487.65 487.65" style="enable-background:new 0 0 487.65 487.65;" xml:space="preserve" width="40px" height="40px">
<g>
	<path d="M243.81,0C113.298,0,73.405,101.628,73.405,186.719c0,123.264,137.776,300.932,170.404,300.932   c34.667,0,170.436-179.022,170.436-300.932C414.245,101.628,374.321,0,243.81,0z M317.237,203.591   c-15.27,14.386-37.854,20.823-64.268,20.823c-5.863,0-11.144-0.287-15.247-0.878v48.56c0,12.236-9.917,22.161-22.161,22.161   c-12.234,0-22.152-9.925-22.152-22.161V112.573c0-7.855,5.91-14.466,13.717-15.327c12.188-1.338,27.49-2.214,46.736-2.214   c27.568,0,47.229,5.273,60.445,15.836c12.608,9.989,21.116,26.414,21.116,45.772C335.424,176.014,328.979,192.438,317.237,203.591z   " fill="#555555"/>
	<path d="M256.203,128.76c-9.097,0-15.253,0.892-18.48,1.768v58.405c3.808,0.877,8.508,1.162,14.96,1.162   c23.77,0,38.444-12.012,38.444-32.277C291.127,139.642,278.508,128.76,256.203,128.76z" fill="#555555"/>
</g>
<g>
</g>
<g>
</g>
<g>
</g>
<g>
</g>
<g>
</g>
<g>
</g>
<g>
</g>
<g>
</g>
<g>
</g>
<g>
</g>
<g>
</g>
<g>
</g>
<g>
</g>
<g>
</g>
<g>
</g>
</svg>
