<?xml version="1.0" standalone="no"?>
<!DOCTYPE svg PUBLIC "-//W3C//DTD SVG 20010904//EN"
 "http://www.w3.org/TR/2001/REC-SVG-20010904/DTD/svg10.dtd">
<svg version="1.0" xmlns="http://www.w3.org/2000/svg"
 width="30.000000pt" height="55pt" viewBox="0 0 252.000000 328.000000"
 preserveAspectRatio="xMidYMid meet">

 
<g transform="translate(0.000000,328.000000) scale(0.100000,-0.100000)"
fill="#777777" stroke="none">

<path d="M31 2669 l-31 -31 0 -1073 0 -1073 31 -31 31 -31 441 0 442 0 139
-215 c76 -118 144 -215 151 -215 7 0 75 97 152 215 l138 215 457 0 456 0 31
31 31 31 0 1073 0 1073 -31 31 -31 31 -1188 0 -1188 0 -31 -31z m1367 -402
c65 -17 122 -57 159 -109 26 -38 28 -49 32 -157 2 -77 8 -123 17 -136 9 -13
14 -49 14 -108 l0 -89 -40 -39 c-22 -22 -40 -45 -40 -52 0 -7 -20 -42 -45 -79
-36 -54 -45 -76 -45 -110 0 -69 13 -81 180 -156 142 -64 166 -77 203 -111 52
-47 68 -90 70 -188 2 -76 0 -84 -23 -107 -67 -68 -298 -106 -640 -106 -335 0
-568 37 -637 102 -21 19 -23 30 -23 110 0 155 30 191 246 299 155 78 184 103
184 162 0 16 -13 48 -29 71 -17 24 -42 70 -57 102 -15 32 -35 70 -45 83 -15
19 -19 41 -19 110 0 58 5 93 14 106 9 13 15 59 17 136 4 108 6 119 32 157 36
51 94 92 155 108 63 17 255 17 320 1z"/>
</g>
</svg>
